<svg width="550" height="513" viewBox="0 0 550 513" fill="none" xmlns="http://www.w3.org/2000/svg">
<path d="M20.252 198.99L551.121 5.76946C555.013 4.35276 559.317 6.35966 560.733 10.252L658.618 279.187C660.034 283.079 658.028 287.383 654.135 288.8L123.267 482.02C119.374 483.437 115.07 481.43 113.654 477.538L15.7694 208.603C14.3527 204.71 16.3596 200.407 20.252 198.99Z" fill="url(#paint0_linear_137_5)" stroke="url(#paint1_linear_137_5)" stroke-width="5"/>
<g filter="url(#filter0_f_137_5)">
<circle cx="159.128" cy="318.128" r="75" transform="rotate(-20 159.128 318.128)" fill="#00FFA4"/>
</g>
<g filter="url(#filter1_b_137_5)">
<path d="M3.4202 234.458C1.53128 229.268 4.20715 223.529 9.39693 221.641L540.266 28.4202C545.455 26.5313 551.194 29.2071 553.083 34.3969L650.967 303.332C652.856 308.522 650.18 314.26 644.99 316.149L114.122 509.369C108.932 511.258 103.193 508.582 101.305 503.393L3.4202 234.458Z" fill="url(#paint2_linear_137_5)"/>
<path d="M10.252 223.99L541.121 30.7694C545.013 29.3527 549.317 31.3596 550.733 35.252L648.618 304.187C650.034 308.079 648.028 312.383 644.135 313.8L113.267 507.02C109.374 508.437 105.07 506.43 103.654 502.538L5.76944 233.603C4.35274 229.71 6.35965 225.406 10.252 223.99Z" stroke="url(#paint3_linear_137_5)" stroke-width="5"/>
</g>
<path d="M147.962 308.536L130.057 284.095L137.358 281.438L148.002 297.849L148.229 297.767L146.421 278.139L152.374 275.972L163.62 292.21L163.847 292.127L161.451 272.668L168.739 270.016L170.746 300.243L164.379 302.56L153.42 287.775L153.207 287.853L154.315 306.224L147.962 308.536ZM188.867 294.086C186.722 294.867 184.718 295.118 182.853 294.839C180.993 294.548 179.359 293.768 177.949 292.497C176.545 291.214 175.446 289.483 174.653 287.303C173.882 285.185 173.626 283.182 173.886 281.293C174.143 279.396 174.872 277.73 176.073 276.295C177.271 274.852 178.902 273.754 180.966 273.003C182.426 272.471 183.843 272.212 185.219 272.226C186.594 272.239 187.884 272.53 189.089 273.1C190.294 273.669 191.379 274.518 192.344 275.648C193.307 276.769 194.094 278.171 194.706 279.853L195.299 281.481L177.479 287.967L176.1 284.176L187.846 279.901C187.584 279.21 187.195 278.652 186.677 278.225C186.159 277.799 185.564 277.537 184.894 277.438C184.229 277.328 183.536 277.403 182.815 277.666C182.085 277.931 181.491 278.334 181.032 278.874C180.571 279.405 180.273 280.012 180.139 280.696C180.001 281.37 180.052 282.063 180.29 282.772L181.694 286.63C181.998 287.466 182.43 288.14 182.989 288.652C183.545 289.155 184.189 289.47 184.92 289.597C185.652 289.724 186.436 289.635 187.272 289.331C187.851 289.12 188.346 288.849 188.76 288.517C189.173 288.185 189.492 287.802 189.717 287.367C189.942 286.933 190.056 286.458 190.06 285.943L196.116 283.935C196.356 285.369 196.235 286.739 195.752 288.043C195.275 289.335 194.456 290.505 193.296 291.552C192.132 292.59 190.656 293.435 188.867 294.086ZM198.368 259.232L208.317 286.568L201.79 288.944L191.841 261.607L198.368 259.232ZM222.183 281.96C220.021 282.747 218.004 282.977 216.131 282.651C214.268 282.321 212.634 281.515 211.23 280.233C209.823 278.941 208.739 277.25 207.978 275.158C207.213 273.058 206.957 271.066 207.208 269.181C207.464 267.283 208.201 265.609 209.416 264.159C210.641 262.706 212.325 261.589 214.47 260.808C216.365 260.118 218.14 259.86 219.796 260.034C221.46 260.204 222.917 260.772 224.165 261.739C225.419 262.693 226.375 264.003 227.032 265.669L220.932 267.889C220.425 266.884 219.769 266.191 218.965 265.808C218.17 265.422 217.305 265.4 216.37 265.74C215.614 266.015 215.029 266.47 214.615 267.104C214.197 267.73 213.979 268.515 213.96 269.459C213.947 270.391 214.16 271.462 214.601 272.672C215.041 273.882 215.569 274.849 216.185 275.572C216.807 276.283 217.48 276.749 218.205 276.968C218.927 277.179 219.666 277.147 220.422 276.872C221.027 276.652 221.514 276.328 221.883 275.902C222.261 275.472 222.51 274.953 222.631 274.345C222.749 273.727 222.717 273.044 222.535 272.294L228.635 270.073C229.188 271.787 229.303 273.418 228.98 274.967C228.665 276.512 227.933 277.892 226.783 279.107C225.639 280.309 224.105 281.26 222.183 281.96ZM244.611 273.797C242.458 274.581 240.446 274.814 238.577 274.496C236.714 274.167 235.076 273.362 233.663 272.083C232.256 270.791 231.17 269.095 230.405 266.995C229.638 264.886 229.38 262.889 229.631 261.004C229.887 259.107 230.625 257.438 231.844 255.996C233.068 254.543 234.757 253.424 236.911 252.64C239.064 251.857 241.073 251.63 242.936 251.959C244.805 252.276 246.443 253.081 247.85 254.373C249.263 255.652 250.354 257.346 251.121 259.455C251.886 261.555 252.14 263.554 251.883 265.451C251.632 267.337 250.894 269.006 249.67 270.459C248.451 271.901 246.765 273.013 244.611 273.797ZM242.858 268.857C243.642 268.572 244.217 268.09 244.585 267.412C244.953 266.734 245.124 265.916 245.098 264.958C245.08 263.997 244.868 262.956 244.46 261.835C244.045 260.696 243.535 259.752 242.931 259.005C242.335 258.254 241.678 257.738 240.961 257.455C240.243 257.172 239.493 257.173 238.71 257.458C237.9 257.753 237.302 258.242 236.916 258.927C236.539 259.608 236.36 260.429 236.377 261.39C236.403 262.348 236.624 263.397 237.038 264.536C237.446 265.657 237.948 266.593 238.544 267.344C239.148 268.091 239.814 268.605 240.541 268.884C241.276 269.161 242.049 269.152 242.858 268.857ZM258.172 268.423L250.71 247.92L256.916 245.661L258.286 249.425L258.513 249.343C258.487 247.942 258.85 246.696 259.602 245.606C260.354 244.516 261.433 243.715 262.839 243.203C264.263 242.685 265.615 242.606 266.895 242.967C268.175 243.327 269.176 244.071 269.899 245.199L270.113 245.121C270.052 243.763 270.444 242.516 271.291 241.382C272.135 240.238 273.313 239.391 274.826 238.841C276.765 238.135 278.567 238.184 280.231 238.989C281.891 239.786 283.115 241.265 283.902 243.428L288.925 257.229L282.398 259.605L277.919 247.298C277.547 246.275 277.001 245.592 276.281 245.249C275.559 244.897 274.779 244.874 273.943 245.178C273.044 245.505 272.443 246.056 272.141 246.832C271.844 247.595 271.874 248.466 272.23 249.444L276.685 261.684L270.412 263.968L265.908 251.594C265.562 250.642 265.03 249.984 264.313 249.62C263.596 249.256 262.815 249.228 261.97 249.536C261.4 249.743 260.948 250.064 260.612 250.499C260.273 250.924 260.07 251.432 260.002 252.021C259.943 252.607 260.037 253.238 260.283 253.914L264.699 266.047L258.172 268.423ZM302.695 252.656C300.55 253.437 298.545 253.688 296.68 253.409C294.821 253.119 293.186 252.338 291.777 251.067C290.373 249.785 289.274 248.053 288.48 245.873C287.71 243.755 287.454 241.752 287.714 239.863C287.971 237.966 288.7 236.3 289.901 234.865C291.098 233.422 292.73 232.324 294.794 231.573C296.253 231.042 297.671 230.783 299.046 230.796C300.422 230.809 301.712 231.101 302.917 231.67C304.121 232.239 305.207 233.089 306.172 234.219C307.134 235.34 307.922 236.741 308.534 238.423L309.126 240.051L291.307 246.537L289.927 242.746L301.673 238.471C301.412 237.78 301.022 237.222 300.504 236.795C299.986 236.369 299.392 236.107 298.721 236.008C298.056 235.898 297.363 235.974 296.642 236.236C295.913 236.501 295.319 236.904 294.86 237.444C294.398 237.975 294.1 238.582 293.966 239.266C293.829 239.941 293.879 240.633 294.117 241.342L295.521 245.2C295.826 246.036 296.258 246.71 296.817 247.222C297.373 247.725 298.016 248.04 298.748 248.167C299.479 248.294 300.263 248.205 301.1 247.901C301.678 247.69 302.174 247.419 302.587 247.087C303.001 246.755 303.32 246.372 303.544 245.938C303.769 245.503 303.884 245.028 303.888 244.513L309.944 242.505C310.184 243.939 310.062 245.309 309.58 246.613C309.103 247.905 308.284 249.075 307.123 250.122C305.959 251.161 304.483 252.005 302.695 252.656ZM327.804 219.86L329.553 224.666L316.619 229.373L314.87 224.568L327.804 219.86ZM315.791 218.67L322.319 216.294L329.222 235.262C329.368 235.662 329.548 235.964 329.764 236.168C329.985 236.36 330.239 236.463 330.527 236.48C330.812 236.487 331.128 236.427 331.475 236.301C331.724 236.21 331.978 236.092 332.238 235.948C332.503 235.79 332.701 235.668 332.83 235.581L335.533 239.933C335.254 240.135 334.854 240.407 334.333 240.748C333.821 241.085 333.18 241.414 332.41 241.735C330.905 242.363 329.528 242.663 328.278 242.634C327.033 242.593 325.955 242.22 325.043 241.514C324.14 240.805 323.445 239.753 322.957 238.358L315.791 218.67ZM348.087 236.135C345.934 236.918 343.923 237.152 342.054 236.834C340.19 236.505 338.552 235.7 337.139 234.421C335.732 233.129 334.646 231.433 333.882 229.333C333.114 227.224 332.856 225.227 333.107 223.342C333.364 221.445 334.101 219.775 335.32 218.334C336.545 216.881 338.234 215.762 340.387 214.978C342.541 214.194 344.549 213.967 346.412 214.297C348.281 214.614 349.919 215.419 351.327 216.71C352.74 217.99 353.83 219.684 354.598 221.793C355.362 223.893 355.616 225.892 355.359 227.789C355.108 229.674 354.37 231.344 353.146 232.797C351.927 234.238 350.241 235.351 348.087 236.135ZM346.335 231.195C347.118 230.91 347.693 230.428 348.061 229.75C348.429 229.072 348.6 228.254 348.574 227.296C348.557 226.335 348.344 225.294 347.936 224.172C347.521 223.033 347.012 222.09 346.407 221.343C345.811 220.592 345.155 220.075 344.437 219.792C343.719 219.509 342.969 219.51 342.186 219.796C341.376 220.09 340.778 220.58 340.393 221.264C340.016 221.946 339.836 222.767 339.853 223.728C339.879 224.686 340.1 225.735 340.514 226.874C340.923 227.995 341.424 228.931 342.02 229.681C342.625 230.429 343.29 230.942 344.017 231.222C344.752 231.498 345.525 231.489 346.335 231.195ZM379.448 224.72C377.304 225.501 375.299 225.752 373.434 225.473C371.575 225.182 369.94 224.402 368.531 223.131C367.126 221.848 366.028 220.117 365.234 217.937C364.463 215.819 364.208 213.816 364.468 211.927C364.725 210.03 365.453 208.364 366.654 206.929C367.852 205.486 369.483 204.388 371.548 203.637C373.007 203.105 374.425 202.847 375.8 202.86C377.175 202.873 378.465 203.164 379.67 203.734C380.875 204.303 381.96 205.153 382.926 206.282C383.888 207.404 384.675 208.805 385.288 210.487L385.88 212.115L368.061 218.601L366.681 214.81L378.427 210.535C378.166 209.844 377.776 209.286 377.258 208.859C376.74 208.433 376.146 208.171 375.475 208.072C374.81 207.962 374.117 208.037 373.396 208.3C372.667 208.565 372.072 208.968 371.614 209.508C371.152 210.039 370.854 210.646 370.72 211.33C370.583 212.004 370.633 212.697 370.871 213.406L372.275 217.264C372.58 218.1 373.011 218.774 373.571 219.286C374.127 219.789 374.77 220.104 375.502 220.231C376.233 220.358 377.017 220.269 377.854 219.965C378.432 219.754 378.928 219.483 379.341 219.151C379.754 218.819 380.073 218.436 380.298 218.002C380.523 217.567 380.637 217.092 380.641 216.577L386.698 214.569C386.938 216.003 386.816 217.373 386.334 218.677C385.857 219.969 385.038 221.139 383.877 222.186C382.713 223.224 381.237 224.069 379.448 224.72ZM390.169 197.162L396.004 202.686L397.043 194.66L403.623 192.264L401.628 204.6L411.299 212.689L404.772 215.065L398.53 209.627L397.337 217.771L390.717 220.18L392.939 207.763L383.548 199.571L390.169 197.162ZM416.864 219.371L406.603 191.18L413.064 188.828L414.341 192.339L414.541 192.266C414.582 191.546 414.741 190.808 415.02 190.051C415.308 189.291 415.768 188.59 416.401 187.946C417.039 187.291 417.896 186.767 418.973 186.375C420.397 185.857 421.863 185.747 423.372 186.044C424.89 186.338 426.315 187.124 427.647 188.403C428.979 189.682 430.084 191.527 430.962 193.938C431.807 196.261 432.145 198.34 431.977 200.175C431.817 202.006 431.257 203.541 430.296 204.777C429.344 206.01 428.112 206.902 426.599 207.453C425.567 207.829 424.611 207.985 423.732 207.922C422.852 207.859 422.054 207.646 421.337 207.282C420.629 206.915 420.022 206.466 419.516 205.934L419.383 205.983L423.391 216.995L416.864 219.371ZM416.728 199.104C417.13 200.207 417.626 201.115 418.218 201.827C418.818 202.535 419.481 203.014 420.207 203.264C420.939 203.502 421.7 203.477 422.492 203.188C423.293 202.897 423.893 202.427 424.292 201.778C424.687 201.12 424.878 200.33 424.865 199.407C424.861 198.482 424.658 197.467 424.256 196.364C423.855 195.26 423.36 194.357 422.771 193.654C422.192 192.948 421.541 192.475 420.818 192.234C420.104 191.99 419.343 192.015 418.533 192.31C417.732 192.601 417.131 193.067 416.729 193.707C416.327 194.347 416.122 195.127 416.114 196.047C416.115 196.964 416.32 197.983 416.728 199.104ZM447.833 199.83C445.688 200.611 443.684 200.862 441.819 200.583C439.959 200.292 438.325 199.512 436.915 198.241C435.511 196.958 434.412 195.227 433.619 193.047C432.848 190.929 432.593 188.926 432.852 187.037C433.109 185.14 433.838 183.474 435.039 182.039C436.237 180.596 437.868 179.498 439.932 178.747C441.392 178.215 442.809 177.957 444.185 177.97C445.56 177.983 446.85 178.275 448.055 178.844C449.26 179.413 450.345 180.263 451.311 181.392C452.273 182.514 453.06 183.915 453.672 185.597L454.265 187.225L436.445 193.711L435.066 189.92L446.812 185.645C446.55 184.954 446.161 184.396 445.643 183.969C445.125 183.543 444.53 183.281 443.86 183.182C443.195 183.072 442.502 183.147 441.781 183.41C441.051 183.675 440.457 184.078 439.999 184.618C439.537 185.149 439.239 185.756 439.105 186.44C438.967 187.114 439.018 187.807 439.256 188.516L440.66 192.374C440.964 193.21 441.396 193.884 441.955 194.396C442.511 194.899 443.155 195.214 443.886 195.341C444.618 195.468 445.402 195.379 446.238 195.075C446.817 194.864 447.312 194.593 447.726 194.261C448.139 193.929 448.458 193.546 448.683 193.112C448.908 192.677 449.022 192.202 449.026 191.687L455.082 189.679C455.322 191.113 455.201 192.483 454.718 193.787C454.241 195.079 453.422 196.249 452.262 197.296C451.098 198.334 449.622 199.179 447.833 199.83ZM463.028 180.62L467.283 192.312L460.756 194.688L453.294 174.186L459.501 171.927L460.871 175.691L461.098 175.608C461.095 174.188 461.511 172.923 462.347 171.813C463.179 170.694 464.351 169.859 465.864 169.308C467.306 168.784 468.674 168.653 469.97 168.917C471.271 169.17 472.425 169.767 473.434 170.71C474.448 171.641 475.23 172.878 475.782 174.421L480.538 187.488L474.011 189.864L469.721 178.078C469.315 176.935 468.702 176.151 467.882 175.724C467.07 175.294 466.148 175.266 465.116 175.642C464.431 175.892 463.881 176.263 463.466 176.757C463.057 177.238 462.81 177.807 462.726 178.462C462.651 179.114 462.752 179.833 463.028 180.62ZM497.295 165.26L491.36 167.602C491.142 167.197 490.835 166.881 490.44 166.652C490.041 166.414 489.585 166.283 489.072 166.258C488.565 166.221 488.022 166.307 487.443 166.518C486.687 166.793 486.097 167.179 485.673 167.676C485.258 168.17 485.149 168.673 485.346 169.186C485.483 169.59 485.769 169.878 486.205 170.052C486.65 170.223 487.337 170.24 488.265 170.104L492.488 169.413C494.677 169.06 496.435 169.156 497.762 169.701C499.098 170.242 500.043 171.259 500.596 172.751C501.098 174.16 501.125 175.536 500.677 176.878C500.237 178.217 499.411 179.435 498.197 180.532C496.981 181.619 495.456 182.497 493.623 183.164C490.695 184.23 488.168 184.469 486.04 183.883C483.917 183.285 482.367 182.016 481.388 180.074L487.777 177.567C488.191 178.263 488.768 178.698 489.506 178.873C490.245 179.047 491.077 178.966 492.003 178.629C492.839 178.325 493.463 177.921 493.875 177.419C494.287 176.916 494.403 176.405 494.224 175.886C494.047 175.426 493.708 175.132 493.207 175.002C492.703 174.863 491.994 174.868 491.082 175.019L487.257 175.64C485.065 176.015 483.284 175.882 481.912 175.243C480.537 174.594 479.569 173.485 479.008 171.916C478.501 170.549 478.439 169.246 478.825 168.007C479.207 166.759 479.985 165.63 481.159 164.618C482.333 163.606 483.845 162.764 485.696 162.09C488.472 161.08 490.873 160.866 492.899 161.448C494.922 162.022 496.387 163.293 497.295 165.26ZM515.924 175.047C513.779 175.828 511.775 176.079 509.91 175.8C508.05 175.509 506.416 174.729 505.006 173.458C503.602 172.175 502.503 170.444 501.71 168.264C500.939 166.146 500.684 164.143 500.943 162.254C501.2 160.357 501.929 158.691 503.13 157.256C504.328 155.812 505.959 154.715 508.023 153.964C509.483 153.432 510.9 153.173 512.276 153.187C513.651 153.2 514.941 153.491 516.146 154.061C517.351 154.63 518.436 155.479 519.402 156.609C520.364 157.73 521.151 159.132 521.763 160.814L522.356 162.442L504.536 168.928L503.157 165.137L514.903 160.862C514.641 160.171 514.252 159.612 513.734 159.186C513.216 158.76 512.621 158.498 511.951 158.399C511.286 158.289 510.593 158.364 509.872 158.627C509.142 158.892 508.548 159.295 508.09 159.835C507.628 160.366 507.33 160.973 507.196 161.657C507.058 162.331 507.109 163.024 507.347 163.733L508.751 167.591C509.055 168.427 509.487 169.101 510.046 169.613C510.602 170.116 511.246 170.431 511.977 170.558C512.709 170.685 513.493 170.596 514.329 170.292C514.908 170.081 515.403 169.81 515.817 169.478C516.23 169.146 516.549 168.763 516.774 168.328C516.999 167.894 517.113 167.419 517.117 166.904L523.173 164.896C523.413 166.33 523.292 167.7 522.809 169.004C522.332 170.296 521.513 171.466 520.353 172.513C519.189 173.551 517.713 174.396 515.924 175.047ZM161.935 331.312L163.684 336.117L150.75 340.825L149.001 336.02L161.935 331.312ZM149.923 330.122L156.45 327.746L163.353 346.713C163.499 347.114 163.68 347.416 163.895 347.62C164.116 347.811 164.37 347.915 164.658 347.931C164.943 347.939 165.259 347.879 165.606 347.753C165.855 347.662 166.11 347.544 166.369 347.399C166.635 347.242 166.832 347.12 166.961 347.033L169.664 351.385C169.385 351.587 168.985 351.859 168.464 352.2C167.952 352.537 167.311 352.866 166.541 353.187C165.036 353.815 163.659 354.115 162.409 354.086C161.165 354.045 160.086 353.672 159.174 352.966C158.271 352.256 157.576 351.204 157.089 349.81L149.923 330.122ZM172.728 350.602L165.265 330.1L171.606 327.792L172.966 331.53L173.179 331.452C173.061 329.964 173.304 328.736 173.91 327.77C174.513 326.795 175.374 326.103 176.496 325.695C176.798 325.585 177.118 325.494 177.454 325.422C177.788 325.341 178.107 325.29 178.412 325.27L180.477 330.943C180.126 330.949 179.686 331.014 179.156 331.136C178.635 331.255 178.179 331.386 177.787 331.528C177.013 331.81 176.378 332.238 175.881 332.812C175.39 333.373 175.079 334.026 174.946 334.77C174.819 335.501 174.905 336.276 175.203 337.095L179.255 348.227L172.728 350.602ZM193.683 343.368C192.375 343.844 191.135 344.049 189.961 343.982C188.794 343.903 187.755 343.526 186.843 342.85C185.938 342.161 185.239 341.141 184.747 339.788C184.332 338.649 184.183 337.615 184.298 336.687C184.413 335.758 184.734 334.921 185.258 334.175C185.783 333.43 186.459 332.766 187.284 332.183C188.107 331.592 189.023 331.062 190.032 330.594C191.158 330.063 192.057 329.61 192.727 329.235C193.393 328.852 193.846 328.49 194.085 328.151C194.33 327.8 194.377 327.415 194.225 326.997L194.2 326.93C193.951 326.245 193.522 325.801 192.915 325.599C192.307 325.397 191.603 325.442 190.802 325.733C189.939 326.048 189.313 326.487 188.924 327.052C188.535 327.617 188.389 328.254 188.486 328.965L182.389 330.942C182.113 329.632 182.167 328.352 182.549 327.105C182.937 325.845 183.678 324.698 184.774 323.665C185.874 322.619 187.341 321.763 189.174 321.096C190.482 320.619 191.745 320.336 192.962 320.246C194.175 320.147 195.298 320.242 196.331 320.532C197.36 320.812 198.251 321.294 199.003 321.977C199.765 322.658 200.343 323.541 200.738 324.626L205.81 338.561L199.67 340.796L198.631 337.94L198.471 337.998C198.358 338.825 198.105 339.582 197.71 340.27C197.325 340.955 196.793 341.556 196.115 342.075C195.446 342.591 194.635 343.022 193.683 343.368ZM194.144 338.363C194.847 338.107 195.427 337.735 195.884 337.246C196.35 336.754 196.661 336.198 196.818 335.576C196.972 334.946 196.927 334.297 196.684 333.63L195.975 331.681C195.824 331.847 195.629 332.018 195.391 332.196C195.162 332.37 194.905 332.549 194.62 332.733C194.334 332.918 194.036 333.097 193.726 333.27C193.417 333.443 193.119 333.607 192.832 333.762C192.254 334.083 191.784 334.426 191.422 334.789C191.07 335.149 190.838 335.536 190.726 335.949C190.62 336.351 190.648 336.774 190.81 337.219C191.056 337.895 191.484 338.324 192.095 338.505C192.714 338.683 193.397 338.635 194.144 338.363ZM219.513 334.012C217.35 334.799 215.333 335.03 213.461 334.704C211.598 334.374 209.964 333.568 208.56 332.285C207.152 330.993 206.068 329.302 205.307 327.211C204.543 325.111 204.286 323.118 204.537 321.233C204.794 319.336 205.53 317.662 206.746 316.212C207.97 314.758 209.655 313.641 211.799 312.861C213.695 312.171 215.47 311.913 217.125 312.086C218.79 312.256 220.246 312.825 221.495 313.791C222.749 314.746 223.704 316.056 224.361 317.721L218.261 319.941C217.754 318.937 217.099 318.243 216.294 317.861C215.499 317.475 214.634 317.452 213.7 317.792C212.943 318.068 212.358 318.522 211.944 319.157C211.527 319.782 211.309 320.567 211.29 321.511C211.276 322.443 211.49 323.515 211.93 324.725C212.371 325.935 212.899 326.902 213.515 327.625C214.136 328.336 214.809 328.801 215.534 329.021C216.256 329.232 216.995 329.2 217.752 328.924C218.357 328.704 218.844 328.381 219.212 327.954C219.59 327.525 219.84 327.006 219.961 326.397C220.079 325.78 220.047 325.096 219.864 324.346L225.964 322.126C226.517 323.839 226.632 325.47 226.309 327.019C225.995 328.564 225.263 329.944 224.113 331.159C222.968 332.362 221.435 333.313 219.513 334.012ZM236.158 321.424L233.352 313.632L234.26 313.302L237.354 303.862L244.749 301.171L240.008 314.808L238.286 315.434L236.158 321.424ZM232.229 328.946L222.28 301.609L228.807 299.233L238.756 326.57L232.229 328.946ZM244.963 324.311L236.498 317.748L239.11 311.552L252.505 321.566L244.963 324.311ZM263.427 318.029C261.283 318.809 259.278 319.06 257.413 318.782C255.554 318.491 253.919 317.71 252.51 316.44C251.105 315.157 250.007 313.426 249.213 311.246C248.442 309.128 248.187 307.125 248.447 305.236C248.704 303.339 249.432 301.673 250.633 300.238C251.831 298.794 253.462 297.697 255.527 296.945C256.986 296.414 258.404 296.155 259.779 296.169C261.154 296.182 262.444 296.473 263.649 297.042C264.854 297.612 265.939 298.461 266.905 299.591C267.867 300.712 268.654 302.114 269.267 303.796L269.859 305.424L252.04 311.91L250.66 308.119L262.406 303.844C262.145 303.153 261.755 302.594 261.237 302.168C260.719 301.742 260.125 301.479 259.454 301.381C258.789 301.27 258.096 301.346 257.375 301.609C256.646 301.874 256.051 302.277 255.593 302.817C255.131 303.347 254.833 303.955 254.699 304.638C254.562 305.313 254.612 306.005 254.85 306.715L256.254 310.572C256.559 311.409 256.99 312.083 257.55 312.595C258.106 313.098 258.749 313.413 259.481 313.54C260.212 313.667 260.996 313.578 261.833 313.273C262.411 313.063 262.907 312.792 263.32 312.46C263.733 312.128 264.053 311.745 264.277 311.31C264.502 310.876 264.616 310.401 264.62 309.885L270.677 307.878C270.917 309.312 270.795 310.681 270.313 311.986C269.836 313.278 269.017 314.448 267.856 315.495C266.692 316.533 265.216 317.378 263.427 318.029ZM276.351 312.887L268.888 292.384L275.229 290.077L276.589 293.814L276.803 293.736C276.684 292.248 276.928 291.02 277.533 290.054C278.136 289.079 278.998 288.388 280.119 287.979C280.421 287.869 280.741 287.778 281.077 287.706C281.411 287.625 281.73 287.574 282.035 287.554L284.1 293.227C283.749 293.234 283.309 293.298 282.779 293.42C282.258 293.539 281.802 293.67 281.411 293.813C280.636 294.094 280.001 294.522 279.504 295.096C279.014 295.658 278.702 296.31 278.569 297.054C278.443 297.785 278.528 298.56 278.826 299.379L282.878 310.511L276.351 312.887Z" fill="url(#paint4_linear_137_5)"/>
<defs>
<filter id="filter0_f_137_5" x="54.108" y="213.108" width="210.041" height="210.041" filterUnits="userSpaceOnUse" color-interpolation-filters="sRGB">
<feFlood flood-opacity="0" result="BackgroundImageFix"/>
<feBlend mode="normal" in="SourceGraphic" in2="BackgroundImageFix" result="shape"/>
<feGaussianBlur stdDeviation="15" result="effect1_foregroundBlur_137_5"/>
</filter>
<filter id="filter1_b_137_5" x="-1.18555" y="23.8144" width="656.758" height="490.161" filterUnits="userSpaceOnUse" color-interpolation-filters="sRGB">
<feFlood flood-opacity="0" result="BackgroundImageFix"/>
<feGaussianBlur in="BackgroundImageFix" stdDeviation="2"/>
<feComposite in2="SourceAlpha" operator="in" result="effect1_backgroundBlur_137_5"/>
<feBlend mode="normal" in="SourceGraphic" in2="effect1_backgroundBlur_137_5" result="shape"/>
</filter>
<linearGradient id="paint0_linear_137_5" x1="1.61525" y1="194.395" x2="761.73" y2="329.932" gradientUnits="userSpaceOnUse">
<stop stop-color="#404040"/>
<stop offset="1" stop-color="#606060"/>
</linearGradient>
<linearGradient id="paint1_linear_137_5" x1="18.5" y1="203.5" x2="809.435" y2="228.971" gradientUnits="userSpaceOnUse">
<stop stop-color="#303030"/>
<stop offset="1" stop-color="#666666"/>
</linearGradient>
<linearGradient id="paint2_linear_137_5" x1="793" y1="229" x2="18.1689" y2="261.699" gradientUnits="userSpaceOnUse">
<stop stop-color="#404040" stop-opacity="0.8"/>
<stop offset="1" stop-color="#606060" stop-opacity="0.5"/>
</linearGradient>
<linearGradient id="paint3_linear_137_5" x1="4.70292e-06" y1="242.5" x2="818.37" y2="238.964" gradientUnits="userSpaceOnUse">
<stop stop-color="#303030"/>
<stop offset="1" stop-color="#666666"/>
</linearGradient>
<linearGradient id="paint4_linear_137_5" x1="142.417" y1="320.132" x2="557.359" y2="169.105" gradientUnits="userSpaceOnUse">
<stop stop-color="white"/>
<stop offset="1" stop-color="#1AEA9F"/>
</linearGradient>
</defs>
</svg>
