<svg width="1440" height="180" viewBox="0 0 1440 180" fill="none" preserveAspectRatio="none" xmlns="http://www.w3.org/2000/svg">
<path d="M0 178C0 178 34.0002 125.377 67.5 100.213C101.366 74.773 123.294 48.674 169 51.647C217.399 54.7952 214.233 112.409 262 119.557C307.631 126.385 328.138 81.3582 374 87.0423C420.341 92.7857 423.157 145.197 470 146.309C518.737 147.466 524.016 94.1625 572 87.0423C609.973 81.4076 633.364 111.348 669.5 100.213C717.283 85.489 680.741 1.3007 731.5 5.5508C775.98 9.27516 756.372 61.8809 789 87.0423C820.228 111.124 848.575 144.513 886.5 128.2C902.425 121.349 900.56 105.144 917.5 100.213C944.02 92.4925 952.986 126.109 981 128.2C1036.56 132.346 1082.98 118.333 1130 93.6275C1175.04 69.9625 1160.75 -12.457 1209.5 5.5508C1254.84 22.2998 1225.65 74.1914 1264 100.213C1292.29 119.407 1315.04 131.342 1351.5 128.2C1412.1 122.977 1440 22.4253 1440 22.4253" stroke="#00FFAA" stroke-width="6"/>
<path d="M262 119.557C214.233 112.409 217.399 54.7952 169 51.647C123.294 48.674 101.366 74.773 67.5 100.213C34.0002 125.377 0 178 0 178H1440V22.4253C1440 22.4253 1412.1 122.977 1351.5 128.2C1315.04 131.342 1292.29 119.407 1264 100.213C1225.65 74.1914 1254.84 22.2998 1209.5 5.5508C1160.75 -12.457 1175.04 69.9625 1130 93.6275C1082.98 118.333 1036.56 132.346 981 128.2C952.986 126.109 944.02 92.4925 917.5 100.213C900.56 105.144 902.425 121.349 886.5 128.2C848.575 144.513 820.228 111.124 789 87.0423C756.372 61.8809 775.98 9.27516 731.5 5.5508C680.741 1.3007 717.283 85.489 669.5 100.213C633.364 111.348 609.973 81.4076 572 87.0423C524.016 94.1625 518.737 147.466 470 146.309C423.157 145.197 420.341 92.7858 374 87.0423C328.138 81.3582 307.631 126.385 262 119.557Z" fill="url(#paint0_linear_94_285)"/>
<defs>
<linearGradient id="paint0_linear_94_285" x1="720" y1="177.588" x2="720" y2="-175.541" gradientUnits="userSpaceOnUse">
<stop stop-color="#0f1111"/>
<stop offset="1" stop-color="#00FFAA"/>
</linearGradient>
</defs>
</svg>
