<svg width="865" height="833" viewBox="0 0 865 833" fill="none" xmlns="http://www.w3.org/2000/svg">
<path d="M0 608C0 608 54.054 611.166 145.896 694.834C237.738 778.503 250 833 250 833" stroke="#303030" stroke-width="5"/>
<path d="M0 480C0 480 84.3243 484.967 227.598 616.233C370.871 747.5 390 833 390 833" stroke="#303030" stroke-width="5"/>
<path d="M0 321C0 321 111.135 328.204 299.962 518.596C488.789 708.988 514 833 514 833" stroke="#303030" stroke-width="5"/>
<path d="M0 172C0 172 144.649 181.301 390.417 427.1C636.186 672.899 669 833 669 833" stroke="#303030" stroke-width="5"/>
<path d="M0 3C0 3 186.378 14.6785 503.049 323.322C819.72 631.965 862 833 862 833" stroke="#303030" stroke-width="5"/>
<g filter="url(#filter0_f_94_282)">
<path d="M431 833C431 737.522 393.598 645.955 327.023 578.442C260.448 510.928 170.152 473 76 473C-18.1518 473 -108.447 510.928 -175.023 578.442C-241.598 645.955 -279 737.522 -279 833L76 833H431Z" fill="url(#paint0_linear_94_282)" fill-opacity="0.8"/>
</g>
<defs>
<filter id="filter0_f_94_282" x="-379" y="373" width="910" height="560" filterUnits="userSpaceOnUse" color-interpolation-filters="sRGB">
<feFlood flood-opacity="0" result="BackgroundImageFix"/>
<feBlend mode="normal" in="SourceGraphic" in2="BackgroundImageFix" result="shape"/>
<feGaussianBlur stdDeviation="50" result="effect1_foregroundBlur_94_282"/>
</filter>
<linearGradient id="paint0_linear_94_282" x1="470.343" y1="497.124" x2="-205.76" y2="1087.12" gradientUnits="userSpaceOnUse">
<stop stop-color="#008F5C"/>
<stop offset="1" stop-color="#202020"/>
</linearGradient>
</defs>
</svg>
