<svg width="389" height="191" viewBox="0 0 389 191" fill="none" xmlns="http://www.w3.org/2000/svg">
<rect x="11.6887" y="166.103" width="94" height="23.7945" rx="1.5" fill="#00D086"/>
<rect x="11.6887" y="166.103" width="94" height="23.7945" rx="1.5" stroke="#1AEA9F"/>
<line x1="20.6887" y1="170.603" x2="20.6887" y2="185.397" stroke="#303030"/>
<line x1="31.6887" y1="170.603" x2="31.6887" y2="185.397" stroke="#303030"/>
<line x1="42.6887" y1="170.603" x2="42.6887" y2="185.397" stroke="#303030"/>
<line x1="53.6887" y1="170.603" x2="53.6887" y2="185.397" stroke="#303030"/>
<line x1="64.6887" y1="170.603" x2="64.6887" y2="185.397" stroke="#303030"/>
<line x1="75.6887" y1="170.603" x2="75.6887" y2="185.397" stroke="#303030"/>
<line x1="86.6887" y1="170.603" x2="86.6887" y2="185.397" stroke="#303030"/>
<line x1="97.6887" y1="170.603" x2="97.6887" y2="185.397" stroke="#303030"/>
<rect x="14.4861" y="142.445" width="94" height="23.7945" rx="1.5" fill="#00D086"/>
<rect x="14.4861" y="142.445" width="94" height="23.7945" rx="1.5" stroke="#1AEA9F"/>
<line x1="23.4861" y1="146.945" x2="23.4861" y2="161.74" stroke="#303030"/>
<line x1="34.4861" y1="146.945" x2="34.4861" y2="161.74" stroke="#303030"/>
<line x1="45.4861" y1="146.945" x2="45.4861" y2="161.74" stroke="#303030"/>
<line x1="56.4861" y1="146.945" x2="56.4861" y2="161.74" stroke="#303030"/>
<line x1="67.4861" y1="146.945" x2="67.4861" y2="161.74" stroke="#303030"/>
<line x1="78.4861" y1="146.945" x2="78.4861" y2="161.74" stroke="#303030"/>
<line x1="89.4861" y1="146.945" x2="89.4861" y2="161.74" stroke="#303030"/>
<line x1="100.486" y1="146.945" x2="100.486" y2="161.74" stroke="#303030"/>
<rect x="8.8916" y="118.788" width="94" height="23.7945" rx="1.5" fill="#00D086"/>
<rect x="8.8916" y="118.788" width="94" height="23.7945" rx="1.5" stroke="#1AEA9F"/>
<line x1="17.8916" y1="123.288" x2="17.8916" y2="138.082" stroke="#303030"/>
<line x1="28.8916" y1="123.288" x2="28.8916" y2="138.082" stroke="#303030"/>
<line x1="39.8916" y1="123.288" x2="39.8916" y2="138.082" stroke="#303030"/>
<line x1="50.8916" y1="123.288" x2="50.8916" y2="138.082" stroke="#303030"/>
<line x1="61.8916" y1="123.288" x2="61.8916" y2="138.082" stroke="#303030"/>
<line x1="72.8916" y1="123.288" x2="72.8916" y2="138.082" stroke="#303030"/>
<line x1="83.8916" y1="123.288" x2="83.8916" y2="138.082" stroke="#303030"/>
<line x1="94.8916" y1="123.288" x2="94.8916" y2="138.082" stroke="#303030"/>
<rect x="17.2832" y="95.1301" width="94" height="23.7945" rx="1.5" fill="#00D086"/>
<rect x="17.2832" y="95.1301" width="94" height="23.7945" rx="1.5" stroke="#1AEA9F"/>
<line x1="26.2832" y1="99.6301" x2="26.2832" y2="114.425" stroke="#303030"/>
<line x1="37.2832" y1="99.6301" x2="37.2832" y2="114.425" stroke="#303030"/>
<line x1="48.2832" y1="99.6301" x2="48.2832" y2="114.425" stroke="#303030"/>
<line x1="59.2832" y1="99.6301" x2="59.2832" y2="114.425" stroke="#303030"/>
<line x1="70.2832" y1="99.6301" x2="70.2832" y2="114.425" stroke="#303030"/>
<line x1="81.2832" y1="99.6301" x2="81.2832" y2="114.425" stroke="#303030"/>
<line x1="92.2832" y1="99.6301" x2="92.2832" y2="114.425" stroke="#303030"/>
<line x1="103.283" y1="99.6301" x2="103.283" y2="114.425" stroke="#303030"/>
<rect x="14.4861" y="71.4726" width="94" height="23.7945" rx="1.5" fill="#00D086"/>
<rect x="14.4861" y="71.4726" width="94" height="23.7945" rx="1.5" stroke="#1AEA9F"/>
<line x1="23.4861" y1="75.9726" x2="23.4861" y2="90.7671" stroke="#303030"/>
<line x1="34.4861" y1="75.9726" x2="34.4861" y2="90.7671" stroke="#303030"/>
<line x1="45.4861" y1="75.9726" x2="45.4861" y2="90.7671" stroke="#303030"/>
<line x1="56.4861" y1="75.9726" x2="56.4861" y2="90.7671" stroke="#303030"/>
<line x1="67.4861" y1="75.9726" x2="67.4861" y2="90.7671" stroke="#303030"/>
<line x1="78.4861" y1="75.9726" x2="78.4861" y2="90.7671" stroke="#303030"/>
<line x1="89.4861" y1="75.9726" x2="89.4861" y2="90.7671" stroke="#303030"/>
<line x1="100.486" y1="75.9726" x2="100.486" y2="90.7671" stroke="#303030"/>
<rect x="8.8916" y="47.8151" width="94" height="23.7945" rx="1.5" fill="#00D086"/>
<rect x="8.8916" y="47.8151" width="94" height="23.7945" rx="1.5" stroke="#1AEA9F"/>
<line x1="17.8916" y1="52.3151" x2="17.8916" y2="67.1096" stroke="#303030"/>
<line x1="28.8916" y1="52.3151" x2="28.8916" y2="67.1096" stroke="#303030"/>
<line x1="39.8916" y1="52.3151" x2="39.8916" y2="67.1096" stroke="#303030"/>
<line x1="50.8916" y1="52.3151" x2="50.8916" y2="67.1096" stroke="#303030"/>
<line x1="61.8916" y1="52.3151" x2="61.8916" y2="67.1096" stroke="#303030"/>
<line x1="72.8916" y1="52.3151" x2="72.8916" y2="67.1096" stroke="#303030"/>
<line x1="83.8916" y1="52.3151" x2="83.8916" y2="67.1096" stroke="#303030"/>
<line x1="94.8916" y1="52.3151" x2="94.8916" y2="67.1096" stroke="#303030"/>
<rect x="0.5" y="24.1575" width="94" height="23.7945" rx="1.5" fill="#00D086"/>
<rect x="0.5" y="24.1575" width="94" height="23.7945" rx="1.5" stroke="#1AEA9F"/>
<line x1="9.5" y1="28.6575" x2="9.5" y2="43.4521" stroke="#303030"/>
<line x1="20.5" y1="28.6575" x2="20.5" y2="43.4521" stroke="#303030"/>
<line x1="31.5" y1="28.6575" x2="31.5" y2="43.4521" stroke="#303030"/>
<line x1="42.5" y1="28.6575" x2="42.5" y2="43.4521" stroke="#303030"/>
<line x1="53.5" y1="28.6575" x2="53.5" y2="43.4521" stroke="#303030"/>
<line x1="64.5" y1="28.6575" x2="64.5" y2="43.4521" stroke="#303030"/>
<line x1="75.5" y1="28.6575" x2="75.5" y2="43.4521" stroke="#303030"/>
<line x1="86.5" y1="28.6575" x2="86.5" y2="43.4521" stroke="#303030"/>
<rect x="6.09418" y="0.5" width="94" height="23.7945" rx="1.5" fill="#00D086"/>
<rect x="6.09418" y="0.5" width="94" height="23.7945" rx="1.5" stroke="#1AEA9F"/>
<line x1="15.0942" y1="5" x2="15.0942" y2="19.7945" stroke="#303030"/>
<line x1="26.0942" y1="5" x2="26.0942" y2="19.7945" stroke="#303030"/>
<line x1="37.0942" y1="5" x2="37.0942" y2="19.7945" stroke="#303030"/>
<line x1="48.0942" y1="5" x2="48.0942" y2="19.7945" stroke="#303030"/>
<line x1="59.0942" y1="5" x2="59.0942" y2="19.7945" stroke="#303030"/>
<line x1="70.0942" y1="5" x2="70.0942" y2="19.7945" stroke="#303030"/>
<line x1="81.0942" y1="5" x2="81.0942" y2="19.7945" stroke="#303030"/>
<line x1="92.0942" y1="5" x2="92.0942" y2="19.7945" stroke="#303030"/>
<rect x="148.675" y="166.103" width="94" height="23.7945" rx="1.5" fill="#00D086"/>
<rect x="148.675" y="166.103" width="94" height="23.7945" rx="1.5" stroke="#1AEA9F"/>
<line x1="157.675" y1="170.603" x2="157.675" y2="185.397" stroke="#303030"/>
<line x1="168.675" y1="170.603" x2="168.675" y2="185.397" stroke="#303030"/>
<line x1="179.675" y1="170.603" x2="179.675" y2="185.397" stroke="#303030"/>
<line x1="190.675" y1="170.603" x2="190.675" y2="185.397" stroke="#303030"/>
<line x1="201.675" y1="170.603" x2="201.675" y2="185.397" stroke="#303030"/>
<line x1="212.675" y1="170.603" x2="212.675" y2="185.397" stroke="#303030"/>
<line x1="223.675" y1="170.603" x2="223.675" y2="185.397" stroke="#303030"/>
<line x1="234.675" y1="170.603" x2="234.675" y2="185.397" stroke="#303030"/>
<rect x="151.472" y="142.445" width="94" height="23.7945" rx="1.5" fill="#00D086"/>
<rect x="151.472" y="142.445" width="94" height="23.7945" rx="1.5" stroke="#1AEA9F"/>
<line x1="160.472" y1="146.945" x2="160.472" y2="161.74" stroke="#303030"/>
<line x1="171.472" y1="146.945" x2="171.472" y2="161.74" stroke="#303030"/>
<line x1="182.472" y1="146.945" x2="182.472" y2="161.74" stroke="#303030"/>
<line x1="193.472" y1="146.945" x2="193.472" y2="161.74" stroke="#303030"/>
<line x1="204.472" y1="146.945" x2="204.472" y2="161.74" stroke="#303030"/>
<line x1="215.472" y1="146.945" x2="215.472" y2="161.74" stroke="#303030"/>
<line x1="226.472" y1="146.945" x2="226.472" y2="161.74" stroke="#303030"/>
<line x1="237.472" y1="146.945" x2="237.472" y2="161.74" stroke="#303030"/>
<rect x="140.283" y="118.788" width="94" height="23.7945" rx="1.5" fill="#00D086"/>
<rect x="140.283" y="118.788" width="94" height="23.7945" rx="1.5" stroke="#1AEA9F"/>
<line x1="149.283" y1="123.288" x2="149.283" y2="138.082" stroke="#303030"/>
<line x1="160.283" y1="123.288" x2="160.283" y2="138.082" stroke="#303030"/>
<line x1="171.283" y1="123.288" x2="171.283" y2="138.082" stroke="#303030"/>
<line x1="182.283" y1="123.288" x2="182.283" y2="138.082" stroke="#303030"/>
<line x1="193.283" y1="123.288" x2="193.283" y2="138.082" stroke="#303030"/>
<line x1="204.283" y1="123.288" x2="204.283" y2="138.082" stroke="#303030"/>
<line x1="215.283" y1="123.288" x2="215.283" y2="138.082" stroke="#303030"/>
<line x1="226.283" y1="123.288" x2="226.283" y2="138.082" stroke="#303030"/>
<rect x="148.675" y="95.1301" width="94" height="23.7945" rx="1.5" fill="#00D086"/>
<rect x="148.675" y="95.1301" width="94" height="23.7945" rx="1.5" stroke="#1AEA9F"/>
<line x1="157.675" y1="99.6301" x2="157.675" y2="114.425" stroke="#303030"/>
<line x1="168.675" y1="99.6301" x2="168.675" y2="114.425" stroke="#303030"/>
<line x1="179.675" y1="99.6301" x2="179.675" y2="114.425" stroke="#303030"/>
<line x1="190.675" y1="99.6301" x2="190.675" y2="114.425" stroke="#303030"/>
<line x1="201.675" y1="99.6301" x2="201.675" y2="114.425" stroke="#303030"/>
<line x1="212.675" y1="99.6301" x2="212.675" y2="114.425" stroke="#303030"/>
<line x1="223.675" y1="99.6301" x2="223.675" y2="114.425" stroke="#303030"/>
<line x1="234.675" y1="99.6301" x2="234.675" y2="114.425" stroke="#303030"/>
<rect x="151.472" y="71.4726" width="94" height="23.7945" rx="1.5" fill="#00D086"/>
<rect x="151.472" y="71.4726" width="94" height="23.7945" rx="1.5" stroke="#1AEA9F"/>
<line x1="160.472" y1="75.9726" x2="160.472" y2="90.7671" stroke="#303030"/>
<line x1="171.472" y1="75.9726" x2="171.472" y2="90.7671" stroke="#303030"/>
<line x1="182.472" y1="75.9726" x2="182.472" y2="90.7671" stroke="#303030"/>
<line x1="193.472" y1="75.9726" x2="193.472" y2="90.7671" stroke="#303030"/>
<line x1="204.472" y1="75.9726" x2="204.472" y2="90.7671" stroke="#303030"/>
<line x1="215.472" y1="75.9726" x2="215.472" y2="90.7671" stroke="#303030"/>
<line x1="226.472" y1="75.9726" x2="226.472" y2="90.7671" stroke="#303030"/>
<line x1="237.472" y1="75.9726" x2="237.472" y2="90.7671" stroke="#303030"/>
<rect x="148.675" y="47.8151" width="94" height="23.7945" rx="1.5" fill="#00D086"/>
<rect x="148.675" y="47.8151" width="94" height="23.7945" rx="1.5" stroke="#1AEA9F"/>
<line x1="157.675" y1="52.3151" x2="157.675" y2="67.1096" stroke="#303030"/>
<line x1="168.675" y1="52.3151" x2="168.675" y2="67.1096" stroke="#303030"/>
<line x1="179.675" y1="52.3151" x2="179.675" y2="67.1096" stroke="#303030"/>
<line x1="190.675" y1="52.3151" x2="190.675" y2="67.1096" stroke="#303030"/>
<line x1="201.675" y1="52.3151" x2="201.675" y2="67.1096" stroke="#303030"/>
<line x1="212.675" y1="52.3151" x2="212.675" y2="67.1096" stroke="#303030"/>
<line x1="223.675" y1="52.3151" x2="223.675" y2="67.1096" stroke="#303030"/>
<line x1="234.675" y1="52.3151" x2="234.675" y2="67.1096" stroke="#303030"/>
<rect x="294.105" y="166.103" width="94" height="23.7945" rx="1.5" fill="#00D086"/>
<rect x="294.105" y="166.103" width="94" height="23.7945" rx="1.5" stroke="#1AEA9F"/>
<line x1="303.105" y1="170.603" x2="303.105" y2="185.397" stroke="#303030"/>
<line x1="314.105" y1="170.603" x2="314.105" y2="185.397" stroke="#303030"/>
<line x1="325.105" y1="170.603" x2="325.105" y2="185.397" stroke="#303030"/>
<line x1="336.105" y1="170.603" x2="336.105" y2="185.397" stroke="#303030"/>
<line x1="347.105" y1="170.603" x2="347.105" y2="185.397" stroke="#303030"/>
<line x1="358.105" y1="170.603" x2="358.105" y2="185.397" stroke="#303030"/>
<line x1="369.105" y1="170.603" x2="369.105" y2="185.397" stroke="#303030"/>
<line x1="380.105" y1="170.603" x2="380.105" y2="185.397" stroke="#303030"/>
<rect x="288.458" y="142.979" width="94" height="23.7945" rx="1.5" fill="#00D086"/>
<rect x="288.458" y="142.979" width="94" height="23.7945" rx="1.5" stroke="#1AEA9F"/>
<line x1="297.458" y1="147.479" x2="297.458" y2="162.274" stroke="#303030"/>
<line x1="308.458" y1="147.479" x2="308.458" y2="162.274" stroke="#303030"/>
<line x1="319.458" y1="147.479" x2="319.458" y2="162.274" stroke="#303030"/>
<line x1="330.458" y1="147.479" x2="330.458" y2="162.274" stroke="#303030"/>
<line x1="341.458" y1="147.479" x2="341.458" y2="162.274" stroke="#303030"/>
<line x1="352.458" y1="147.479" x2="352.458" y2="162.274" stroke="#303030"/>
<line x1="363.458" y1="147.479" x2="363.458" y2="162.274" stroke="#303030"/>
<line x1="374.458" y1="147.479" x2="374.458" y2="162.274" stroke="#303030"/>
<rect x="282.864" y="119.788" width="94" height="23.7945" rx="1.5" fill="#00D086"/>
<rect x="282.864" y="119.788" width="94" height="23.7945" rx="1.5" stroke="#1AEA9F"/>
<line x1="291.864" y1="124.288" x2="291.864" y2="139.082" stroke="#303030"/>
<line x1="302.864" y1="124.288" x2="302.864" y2="139.082" stroke="#303030"/>
<line x1="313.864" y1="124.288" x2="313.864" y2="139.082" stroke="#303030"/>
<line x1="324.864" y1="124.288" x2="324.864" y2="139.082" stroke="#303030"/>
<line x1="335.864" y1="124.288" x2="335.864" y2="139.082" stroke="#303030"/>
<line x1="346.864" y1="124.288" x2="346.864" y2="139.082" stroke="#303030"/>
<line x1="357.864" y1="124.288" x2="357.864" y2="139.082" stroke="#303030"/>
<line x1="368.864" y1="124.288" x2="368.864" y2="139.082" stroke="#303030"/>
<rect x="274.472" y="96.5958" width="94" height="23.7945" rx="1.5" fill="#00D086"/>
<rect x="274.472" y="96.5958" width="94" height="23.7945" rx="1.5" stroke="#1AEA9F"/>
<line x1="283.472" y1="101.096" x2="283.472" y2="115.89" stroke="#303030"/>
<line x1="294.472" y1="101.096" x2="294.472" y2="115.89" stroke="#303030"/>
<line x1="305.472" y1="101.096" x2="305.472" y2="115.89" stroke="#303030"/>
<line x1="316.472" y1="101.096" x2="316.472" y2="115.89" stroke="#303030"/>
<line x1="327.472" y1="101.096" x2="327.472" y2="115.89" stroke="#303030"/>
<line x1="338.472" y1="101.096" x2="338.472" y2="115.89" stroke="#303030"/>
<line x1="349.472" y1="101.096" x2="349.472" y2="115.89" stroke="#303030"/>
<line x1="360.472" y1="101.096" x2="360.472" y2="115.89" stroke="#303030"/>
</svg>
